<?xml version="1.0" encoding="UTF-8" standalone="no"?>
<!-- Created with Inkscape (http://www.inkscape.org/) -->

<svg
   width="1024"
   height="1024"
   viewBox="0 0 270.93333 270.93333"
   version="1.1"
   id="svg1"
   inkscape:version="1.4 (e7c3feb100, 2024-10-09)"
   sodipodi:docname="logo.svg"
   xmlns:inkscape="http://www.inkscape.org/namespaces/inkscape"
   xmlns:sodipodi="http://sodipodi.sourceforge.net/DTD/sodipodi-0.dtd"
   xmlns="http://www.w3.org/2000/svg"
   xmlns:svg="http://www.w3.org/2000/svg">
  <sodipodi:namedview
     id="namedview1"
     pagecolor="#ffffff"
     bordercolor="#000000"
     borderopacity="0.25"
     inkscape:showpageshadow="2"
     inkscape:pageopacity="0.0"
     inkscape:pagecheckerboard="0"
     inkscape:deskcolor="#d1d1d1"
     inkscape:document-units="px"
     inkscape:zoom="0.5"
     inkscape:cx="246"
     inkscape:cy="604"
     inkscape:window-width="1920"
     inkscape:window-height="1016"
     inkscape:window-x="0"
     inkscape:window-y="37"
     inkscape:window-maximized="1"
     inkscape:current-layer="layer1" />
  <defs
     id="defs1" />
  <g
     inkscape:label="Layer 1"
     inkscape:groupmode="layer"
     id="layer1">
    <rect
       style="fill:#487ec4;fill-opacity:1;stroke:none;stroke-width:1.44977;stroke-dasharray:none;stroke-opacity:1"
       id="rect3"
       width="258.81897"
       height="270.80179"
       x="9.1249409"
       y="0.11868016"
       ry="43.387405" />
    <path
       id="rect1"
       style="fill:#ffc300;fill-opacity:1;stroke-width:1.35152;stroke-dasharray:none"
       inkscape:label="Background"
       d="m 267.90627,43.895822 c -33.90306,69.445408 -137.8836,64.737908 -126.50696,103.538898 18.53418,63.21234 -78.338149,30.50786 -111.084503,111.03944 7.202727,7.66119 17.412618,12.45916 28.806433,12.45916 h 172.27001 c 21.90616,0 39.54207,-17.63591 39.54207,-39.54207 V 59.121244 c 0,-5.403102 -1.08186,-10.542455 -3.02705,-15.225422 z" />
    <path
       id="path3"
       style="fill:#ffc300;fill-opacity:1;stroke-width:1.35152;stroke-dasharray:none"
       inkscape:label="Background"
       d="M 39.542085,0 C 17.635915,0 0,17.635915 0,39.542085 V 211.81209 C 0,222.32444 4.0901506,231.8265 10.735652,238.895 43.482006,158.36342 140.35433,191.0679 121.82015,127.85556 110.44351,89.054575 214.42405,93.76207 248.32711,24.316663 242.38579,10.013153 228.31516,0 211.81209,0 Z" />
    <text
       xml:space="preserve"
       style="font-style:normal;font-variant:normal;font-weight:normal;font-stretch:normal;font-size:311.059px;font-family:Ubuntu;-inkscape-font-specification:Ubuntu;text-align:end;letter-spacing:2.63537px;text-anchor:end;fill:#2e333d;fill-opacity:1;stroke-width:2.16014"
       x="208.49226"
       y="211.74849"
       id="text1"><tspan
         sodipodi:role="line"
         id="tspan1"
         style="font-style:normal;font-variant:normal;font-weight:normal;font-stretch:normal;font-size:311.059px;font-family:Uroob;-inkscape-font-specification:Uroob;fill:#2e333d;stroke-width:2.16014;fill-opacity:1"
         x="211.12764"
         y="211.74849">w</tspan></text>
  </g>
</svg>
